<svg width="179" height="45" viewBox="0 0 179 45" fill="none" xmlns="http://www.w3.org/2000/svg">
<path d="M2.05633 28.163V16.3896H5.08853V17.4834H3.37628V27.0692H5.08853V28.163H2.05633ZM6.44704 27V17.548H12.373V18.7757H7.87315V21.6556H12.0638V22.8786H7.87315V25.7723H12.4284V27H6.44704ZM19.4013 21.6417L18.1506 21.8633C18.0983 21.7033 18.0152 21.551 17.9014 21.4063C17.7906 21.2617 17.6398 21.1433 17.4491 21.051C17.2583 20.9587 17.0199 20.9125 16.7337 20.9125C16.343 20.9125 16.0168 21.0002 15.7553 21.1756C15.4938 21.3479 15.363 21.571 15.363 21.8448C15.363 22.0817 15.4507 22.2725 15.6261 22.4171C15.8014 22.5617 16.0845 22.6801 16.4753 22.7725L17.6014 23.0309C18.2537 23.1817 18.7398 23.414 19.0598 23.7278C19.3798 24.0416 19.5398 24.4493 19.5398 24.9508C19.5398 25.3754 19.4167 25.7539 19.1706 26.0862C18.9275 26.4154 18.5875 26.6739 18.1506 26.8615C17.7168 27.0492 17.2137 27.1431 16.6414 27.1431C15.8476 27.1431 15.1999 26.9738 14.6984 26.6354C14.1969 26.2939 13.8892 25.8093 13.7754 25.1816L15.1092 24.9785C15.1922 25.3262 15.363 25.5893 15.6214 25.7677C15.8799 25.9431 16.2168 26.0308 16.6322 26.0308C17.0845 26.0308 17.446 25.937 17.7168 25.7493C17.9875 25.5585 18.1229 25.3262 18.1229 25.0524C18.1229 24.8308 18.0398 24.6447 17.8737 24.4939C17.7106 24.3432 17.4598 24.2293 17.1214 24.1524L15.9214 23.8893C15.2599 23.7386 14.7707 23.4986 14.4538 23.1694C14.14 22.8401 13.983 22.4232 13.983 21.9186C13.983 21.5002 14.1 21.134 14.3338 20.8202C14.5676 20.5064 14.8907 20.2618 15.303 20.0864C15.7153 19.9079 16.1876 19.8187 16.7199 19.8187C17.486 19.8187 18.0891 19.9849 18.529 20.3171C18.969 20.6464 19.2598 21.0879 19.4013 21.6417ZM24.2882 19.911V21.0187H20.416V19.911H24.2882ZM21.4544 18.2126H22.8344V24.9185C22.8344 25.1862 22.8744 25.3877 22.9544 25.5231C23.0344 25.6554 23.1374 25.7462 23.2636 25.7954C23.3928 25.8416 23.5328 25.8647 23.6836 25.8647C23.7943 25.8647 23.8913 25.857 23.9743 25.8416C24.0574 25.8262 24.122 25.8139 24.1682 25.8047L24.4174 26.9446C24.3374 26.9754 24.2236 27.0062 24.0759 27.0369C23.9282 27.0708 23.7436 27.0892 23.522 27.0923C23.159 27.0985 22.8205 27.0338 22.5067 26.8985C22.1929 26.7631 21.939 26.5539 21.7452 26.2708C21.5513 25.9877 21.4544 25.6324 21.4544 25.2047V18.2126ZM25.7367 27V19.911H27.0705V21.0371H27.1443C27.2735 20.6556 27.5012 20.3556 27.8274 20.1372C28.1566 19.9156 28.5289 19.8049 28.9443 19.8049C29.0304 19.8049 29.1319 19.8079 29.2489 19.8141C29.3689 19.8202 29.4627 19.8279 29.5304 19.8372V21.1571C29.475 21.1417 29.3766 21.1248 29.235 21.1064C29.0935 21.0848 28.952 21.074 28.8104 21.074C28.4843 21.074 28.1935 21.1433 27.9381 21.2817C27.6858 21.4171 27.4858 21.6063 27.3382 21.8494C27.1905 22.0894 27.1166 22.3632 27.1166 22.6709V27H25.7367ZM32.6462 27.1569C32.1969 27.1569 31.7908 27.0738 31.4277 26.9077C31.0647 26.7385 30.777 26.4939 30.5647 26.1739C30.3555 25.8539 30.2508 25.4616 30.2508 24.997C30.2508 24.597 30.3278 24.2678 30.4816 24.0093C30.6355 23.7509 30.8431 23.5463 31.1047 23.3955C31.3662 23.2447 31.6585 23.1309 31.9816 23.054C32.3046 22.9771 32.6338 22.9186 32.9692 22.8786C33.3938 22.8294 33.7384 22.7894 34.003 22.7586C34.2676 22.7248 34.4599 22.6709 34.5799 22.5971C34.6999 22.5232 34.7599 22.4032 34.7599 22.2371V22.2048C34.7599 21.8017 34.6461 21.4894 34.4184 21.2679C34.1938 21.0464 33.8584 20.9356 33.4123 20.9356C32.9477 20.9356 32.5815 21.0387 32.3139 21.2448C32.0493 21.4479 31.8662 21.674 31.7646 21.9232L30.4678 21.6279C30.6216 21.1971 30.8462 20.8494 31.1416 20.5848C31.44 20.3171 31.7831 20.1233 32.1708 20.0033C32.5585 19.8802 32.9661 19.8187 33.3938 19.8187C33.6769 19.8187 33.9769 19.8525 34.2938 19.9202C34.6138 19.9849 34.9122 20.1048 35.1891 20.2802C35.4691 20.4556 35.6984 20.7064 35.8768 21.0325C36.0553 21.3556 36.1445 21.7756 36.1445 22.2925V27H34.7968V26.0308H34.7415C34.6522 26.2093 34.5184 26.3846 34.3399 26.5569C34.1615 26.7292 33.9323 26.8723 33.6523 26.9862C33.3723 27.1 33.0369 27.1569 32.6462 27.1569ZM32.9461 26.0493C33.3277 26.0493 33.6538 25.9739 33.9246 25.8231C34.1984 25.6724 34.4061 25.4754 34.5476 25.2324C34.6922 24.9862 34.7645 24.7232 34.7645 24.4432V23.5293C34.7153 23.5786 34.6199 23.6247 34.4784 23.6678C34.3399 23.7078 34.1815 23.7432 34.003 23.774C33.8246 23.8016 33.6507 23.8278 33.4815 23.8524C33.3123 23.874 33.1708 23.8924 33.0569 23.9078C32.7892 23.9416 32.5446 23.9986 32.3231 24.0786C32.1046 24.1586 31.9293 24.2739 31.797 24.4247C31.6677 24.5724 31.6031 24.7693 31.6031 25.0155C31.6031 25.357 31.7293 25.6154 31.9816 25.7908C32.2339 25.9631 32.5554 26.0493 32.9461 26.0493Z" fill="#2682FF"/>
<path d="M38.0153 17.548H39.746L42.7551 24.8955H42.8659L45.875 17.548H47.6057V27H46.2489V20.1602H46.1612L43.3736 26.9862H42.2475L39.4599 20.1556H39.3722V27H38.0153V17.548ZM50.3627 29.6584C50.1565 29.6584 49.9688 29.6414 49.7996 29.6076C49.6304 29.5768 49.5042 29.543 49.4212 29.5061L49.7535 28.3753C50.0058 28.443 50.2304 28.4723 50.4273 28.463C50.6242 28.4538 50.798 28.38 50.9488 28.2415C51.1026 28.103 51.238 27.8769 51.3549 27.5631L51.5257 27.0923L48.9319 19.911H50.4088L52.2041 25.4124H52.278L54.0733 19.911H55.5548L52.6334 27.9461C52.498 28.3153 52.3257 28.6276 52.1165 28.883C51.9072 29.1415 51.658 29.3353 51.3688 29.4645C51.0796 29.5938 50.7442 29.6584 50.3627 29.6584Z" fill="#FFB700"/>
<path d="M56.8845 27V17.548H60.2536C60.9889 17.548 61.5982 17.6819 62.0812 17.9495C62.5643 18.2172 62.9258 18.5834 63.1658 19.048C63.4058 19.5095 63.5258 20.0295 63.5258 20.6079C63.5258 21.1894 63.4042 21.7125 63.1612 22.1771C62.9212 22.6386 62.5581 23.0048 62.072 23.2755C61.5889 23.5432 60.9812 23.677 60.249 23.677H57.9321V22.4678H60.1197C60.5843 22.4678 60.9613 22.3878 61.2505 22.2279C61.5397 22.0648 61.752 21.8433 61.8874 21.5633C62.0228 21.2833 62.0904 20.9648 62.0904 20.6079C62.0904 20.251 62.0228 19.9341 61.8874 19.6572C61.752 19.3803 61.5382 19.1633 61.2459 19.0064C60.9566 18.8495 60.5751 18.771 60.1013 18.771H58.3106V27H56.8845ZM65.8812 29.6584C65.675 29.6584 65.4873 29.6414 65.3181 29.6076C65.1489 29.5768 65.0227 29.543 64.9397 29.5061L65.272 28.3753C65.5243 28.443 65.7489 28.4723 65.9458 28.463C66.1427 28.4538 66.3165 28.38 66.4673 28.2415C66.6212 28.103 66.7565 27.8769 66.8735 27.5631L67.0442 27.0923L64.4505 19.911H65.9273L67.7227 25.4124H67.7965L69.5918 19.911H71.0733L68.1519 27.9461C68.0165 28.3153 67.8442 28.6276 67.635 28.883C67.4257 29.1415 67.1765 29.3353 66.8873 29.4645C66.5981 29.5938 66.2627 29.6584 65.8812 29.6584ZM72.2922 27V19.911H73.6168V21.0648H73.7045C73.8522 20.6741 74.0937 20.3695 74.4291 20.151C74.7644 19.9295 75.166 19.8187 75.6336 19.8187C76.1075 19.8187 76.5044 19.9295 76.8244 20.151C77.1474 20.3725 77.3859 20.6771 77.5397 21.0648H77.6136C77.7828 20.6864 78.052 20.3848 78.4212 20.1602C78.7904 19.9325 79.2304 19.8187 79.7412 19.8187C80.3842 19.8187 80.9088 20.0202 81.315 20.4233C81.7242 20.8264 81.9288 21.434 81.9288 22.2463V27H80.5489V22.3755C80.5489 21.8956 80.4181 21.5479 80.1566 21.3325C79.895 21.1171 79.5827 21.0094 79.2197 21.0094C78.7705 21.0094 78.4212 21.1479 78.172 21.4248C77.9228 21.6986 77.7982 22.0509 77.7982 22.4817V27H76.4228V22.2879C76.4228 21.9032 76.3028 21.594 76.0629 21.3602C75.8229 21.1264 75.5106 21.0094 75.126 21.0094C74.8644 21.0094 74.6229 21.0787 74.4014 21.2171C74.1829 21.3525 74.006 21.5417 73.8706 21.7848C73.7383 22.0279 73.6722 22.3094 73.6722 22.6294V27H72.2922ZM86.7557 27.1431C86.0572 27.1431 85.4557 26.9938 84.9511 26.6954C84.4496 26.3939 84.0619 25.9708 83.7881 25.4262C83.5173 24.8785 83.3819 24.237 83.3819 23.5017C83.3819 22.7755 83.5173 22.1355 83.7881 21.5817C84.0619 21.0279 84.4434 20.5956 84.9326 20.2848C85.4249 19.9741 86.0003 19.8187 86.6587 19.8187C87.0587 19.8187 87.4464 19.8849 87.8218 20.0172C88.1972 20.1495 88.5341 20.3571 88.8325 20.6402C89.131 20.9233 89.3663 21.291 89.5386 21.7433C89.7109 22.1925 89.7971 22.7386 89.7971 23.3817V23.8709H84.1619V22.8371H88.4448C88.4448 22.474 88.371 22.1525 88.2233 21.8725C88.0756 21.5894 87.8679 21.3663 87.6002 21.2033C87.3356 21.0402 87.0249 20.9587 86.668 20.9587C86.2803 20.9587 85.9418 21.054 85.6526 21.2448C85.3665 21.4325 85.1449 21.6786 84.988 21.9832C84.8342 22.2848 84.7573 22.6125 84.7573 22.9663V23.774C84.7573 24.2478 84.8403 24.6508 85.0065 24.9831C85.1757 25.3154 85.4111 25.5693 85.7126 25.7447C86.0141 25.917 86.3664 26.0031 86.7695 26.0031C87.031 26.0031 87.2695 25.9662 87.4849 25.8923C87.7002 25.8154 87.8864 25.7016 88.0433 25.5508C88.2002 25.4001 88.3202 25.2139 88.4033 24.9924L89.7094 25.2278C89.6048 25.6124 89.4171 25.9493 89.1464 26.2385C88.8787 26.5246 88.5418 26.7477 88.1356 26.9077C87.7326 27.0646 87.2726 27.1431 86.7557 27.1431Z" fill="#00006D"/>
<g clip-path="url(#clip0_103_878)">
<path d="M101.223 21.6947L94.4856 19.9143L92.6456 13.1513L97.5526 8.20277L104.29 9.98313L106.13 16.7461L101.223 21.6947ZM100.426 20.5329L99.0052 15.3098L93.8333 13.9808L95.237 19.1403L100.426 20.5329ZM101.322 20.2892L105.09 16.4595L103.686 11.2991L99.9007 15.0651L101.322 20.2892ZM90.0935 12.6114L89.1187 9.02832L92.7017 8.05349L92.9454 8.94925L90.2581 9.68037L90.9892 12.3676L90.0935 12.6114ZM97.0884 24.1772L93.5054 25.152L92.5306 21.5689L93.4263 21.3252L94.1575 24.0125L96.8447 23.2814L97.0884 24.1772ZM106.046 21.7401L105.802 20.8443L108.49 20.1132L107.758 17.4259L108.654 17.1822L109.629 20.7652L106.046 21.7401ZM105.321 8.46831L104.59 5.78103L101.903 6.51216L101.659 5.6164L105.242 4.64157L106.217 8.2246L105.321 8.46831ZM99.2437 14.4184L103.01 10.6201L97.8414 9.26424L94.0728 13.0507L99.2437 14.4184Z" fill="#58C0A3"/>
</g>
<path d="M121.22 29.4139C121.341 28.2051 121.421 27.1575 121.502 26.3517C121.542 25.5458 121.623 24.4176 121.663 23.0476C121.703 21.6777 121.744 20.7509 121.744 20.3077V19.663C122.952 19.663 124.403 19.663 126.135 19.663C127.707 19.663 129.117 19.663 130.326 19.663V19.9048C130.326 19.9451 130.326 20.1868 130.286 20.5092L130.245 21.2747C130.245 21.4359 130.245 21.5971 130.245 21.7583C129.238 21.718 128.432 21.718 127.747 21.718C127.022 21.718 126.498 21.718 126.256 21.718C126.015 21.718 125.612 21.718 125.048 21.7583L124.967 23.4103C125.571 23.4103 126.297 23.4103 127.103 23.4103C127.385 23.4103 128.15 23.4103 129.399 23.37C129.359 23.9744 129.319 24.6997 129.238 25.5458C128.352 25.5458 127.667 25.5458 127.183 25.5458C126.458 25.5458 125.692 25.5458 124.806 25.5861L124.685 27.359H125.571C125.813 27.359 126.377 27.359 127.183 27.3187L128.795 27.2784C129.037 27.2784 129.44 27.2381 129.963 27.2381C129.883 27.9634 129.842 28.6887 129.802 29.4139C128.553 29.4139 127.183 29.4139 125.692 29.4139H122.308H121.22Z" fill="#24306E"/>
<path d="M121.945 13.8205C122.267 13.8205 122.509 13.8205 122.63 13.8205C122.791 13.8205 123.033 13.8205 123.315 13.8205L123.234 15.0696C123.234 15.3113 123.194 15.5128 123.194 15.7546C123.194 15.956 123.194 16.1172 123.194 16.1978C123.194 16.359 123.194 16.4798 123.234 16.5604C123.275 16.641 123.315 16.7619 123.355 16.8022C123.396 16.8828 123.517 16.9231 123.597 16.9634C123.718 17.0037 123.839 17.0037 123.96 17.0037C124.04 17.0037 124.161 17.0037 124.242 16.9634C124.322 16.9634 124.363 16.9231 124.443 16.8828C124.484 16.8425 124.524 16.8022 124.564 16.7619C124.604 16.7216 124.645 16.641 124.685 16.5604C124.725 16.4798 124.725 16.359 124.766 16.2381C124.766 16.1172 124.806 15.8352 124.846 15.3516C124.886 14.9487 124.887 14.6264 124.927 14.2637C124.927 13.9414 124.967 13.7802 124.967 13.7802C125.289 13.7802 125.531 13.7802 125.733 13.7802H126.377L126.216 15.8755C126.216 15.9157 126.216 15.956 126.216 15.956C126.216 16.359 126.176 16.641 126.136 16.8425C126.095 17.0037 126.015 17.1648 125.894 17.2857C125.773 17.4066 125.652 17.5275 125.41 17.6081C125.169 17.6886 124.967 17.7692 124.725 17.8095C124.484 17.8498 124.202 17.8901 123.919 17.8901C123.678 17.8901 123.436 17.8901 123.234 17.8498C123.033 17.8095 122.832 17.7692 122.67 17.7289C122.509 17.6483 122.348 17.6081 122.227 17.5275C122.106 17.4469 122.026 17.3663 121.985 17.2857C121.945 17.2051 121.865 17.1245 121.824 17.0037C121.784 16.8828 121.784 16.7619 121.784 16.6007C121.784 16.5604 121.784 16.4798 121.784 16.3993C121.784 16.3187 121.784 16.1575 121.824 15.9963L121.865 15.5128C121.865 15.3919 121.905 15.1905 121.905 14.989L121.945 13.8205Z" fill="#24306E"/>
<path d="M126.74 17.8498L126.821 17.2454L126.941 15.1502L126.982 14.304V13.8205C127.304 13.8205 127.586 13.8205 127.868 13.8205C128.07 13.8205 128.311 13.8205 128.634 13.8205L130.004 16.1172L130.205 16.4396C130.245 16.1172 130.245 15.6337 130.286 15.0293C130.326 14.4249 130.326 14.022 130.326 13.7802C130.608 13.7802 130.81 13.7802 130.971 13.7802C131.051 13.7802 131.253 13.7802 131.575 13.7802L131.495 14.6667L131.333 17.1245V17.8498C131.051 17.8498 130.81 17.8498 130.568 17.8498C130.366 17.8498 130.084 17.8498 129.722 17.8498C129.601 17.6483 129.52 17.5275 129.48 17.4469L128.956 16.6007C128.795 16.3187 128.634 16.0769 128.473 15.7949C128.392 15.6337 128.271 15.4725 128.15 15.2711L128.07 16.6813L128.029 17.8498C127.747 17.8498 127.546 17.8498 127.425 17.8498C127.264 17.8498 127.062 17.8498 126.74 17.8498Z" fill="#24306E"/>
<path d="M132.22 17.8498C132.341 16.2784 132.421 15.0696 132.421 14.2234V13.8205C132.784 13.8205 133.026 13.8205 133.146 13.8205C133.187 13.8205 133.429 13.8205 133.831 13.8205C133.791 14.2637 133.751 14.6667 133.751 15.0696C133.711 15.6337 133.711 16.1172 133.67 16.6007C133.67 17.0842 133.67 17.4872 133.67 17.8095H133.026C132.864 17.8498 132.623 17.8498 132.22 17.8498Z" fill="#24306E"/>
<path d="M135.927 17.8498L135.806 17.4872L135.04 15.3919L134.436 13.7802C134.718 13.7802 135 13.7802 135.201 13.7802C135.322 13.7802 135.564 13.7802 135.846 13.7802C135.886 13.9414 135.927 14.1026 135.967 14.1831C136.007 14.304 136.088 14.5055 136.168 14.8278L136.652 16.2381C136.692 16.3993 136.773 16.5604 136.813 16.8022L136.974 16.4798L138.102 14.2234C138.102 14.1831 138.143 14.1428 138.183 14.1026C138.223 14.0623 138.264 13.9817 138.304 13.8205C138.626 13.8205 138.868 13.8205 139.029 13.8205C139.15 13.8205 139.392 13.8205 139.714 13.8205C139.513 14.1831 139.231 14.6264 138.989 15.1099L137.901 17.1245C137.78 17.326 137.659 17.5678 137.538 17.8095C137.176 17.8095 136.934 17.8095 136.773 17.8095C136.571 17.8498 136.33 17.8498 135.927 17.8498Z" fill="#24306E"/>
<path d="M139.956 17.8498C139.996 17.326 140.037 16.9231 140.077 16.5604C140.117 16.1978 140.117 15.7546 140.158 15.1905C140.198 14.6264 140.198 14.2637 140.198 14.0623V13.8205C140.681 13.8205 141.326 13.8205 142.011 13.8205C142.656 13.8205 143.26 13.8205 143.744 13.8205V13.9011C143.744 13.9414 143.744 14.022 143.744 14.1428L143.703 14.5055C143.703 14.5861 143.703 14.6264 143.703 14.7069C143.3 14.7069 142.938 14.6667 142.656 14.6667C142.333 14.6667 142.132 14.6667 142.051 14.6667C141.93 14.6667 141.769 14.6667 141.568 14.6667L141.527 15.3516C141.769 15.3516 142.051 15.3516 142.414 15.3516C142.535 15.3516 142.857 15.3516 143.381 15.3516C143.341 15.5934 143.341 15.9157 143.3 16.2381C142.938 16.2381 142.656 16.2381 142.454 16.2381C142.172 16.2381 141.85 16.2381 141.487 16.2381L141.447 16.9634H141.81C141.93 16.9634 142.132 16.9634 142.495 16.9634H143.139C143.22 16.9634 143.421 16.9634 143.623 16.9231C143.582 17.2051 143.582 17.5275 143.542 17.8095C143.018 17.8095 142.454 17.8095 141.85 17.8095H140.44H139.956V17.8498Z" fill="#24306E"/>
<path d="M144.348 17.8498C144.388 17.4872 144.428 17.2051 144.428 16.9231C144.428 16.641 144.469 16.3187 144.509 15.956C144.549 15.5934 144.549 15.1905 144.549 14.7875C144.549 14.3846 144.549 14.0623 144.549 13.8205C144.831 13.8205 145.033 13.8205 145.194 13.8205C145.355 13.8205 145.557 13.8205 145.798 13.8205C146.04 13.8205 146.282 13.8205 146.524 13.8205C146.806 13.8205 147.048 13.8205 147.249 13.8608C147.41 13.8608 147.571 13.9011 147.692 13.9414C147.813 13.9817 147.934 14.022 148.015 14.1025C148.095 14.1831 148.176 14.2234 148.256 14.304C148.337 14.3846 148.377 14.4652 148.377 14.5861C148.417 14.7069 148.417 14.7875 148.417 14.9084C148.417 15.0293 148.417 15.1502 148.377 15.271C148.337 15.3919 148.297 15.4725 148.216 15.5934C148.135 15.674 148.055 15.7949 147.934 15.8754C147.813 15.956 147.652 16.0366 147.45 16.1172L147.612 16.4798C147.652 16.6007 147.692 16.6813 147.773 16.8022L148.216 17.6886C148.256 17.7289 148.256 17.8095 148.297 17.8901C147.934 17.8901 147.692 17.8901 147.571 17.8901C147.41 17.8901 147.168 17.8901 146.806 17.8901C146.765 17.8095 146.725 17.608 146.604 17.326C146.564 17.2051 146.524 17.1245 146.524 17.0439C146.483 16.9231 146.403 16.7216 146.282 16.4395L145.96 15.5934C146.081 15.5934 146.201 15.6337 146.282 15.6337C146.443 15.6337 146.564 15.6337 146.725 15.5531C146.846 15.5128 146.967 15.4322 147.007 15.3516C147.088 15.271 147.088 15.1502 147.088 15.0696C147.088 14.989 147.048 14.9084 147.007 14.8681C146.967 14.8278 146.886 14.7472 146.765 14.7472C146.645 14.7069 146.483 14.7069 146.282 14.7069C146.201 14.7069 146.121 14.7069 146.04 14.7069C145.96 14.7069 145.879 14.7069 145.758 14.7069C145.718 15.1099 145.718 15.5934 145.678 16.1978C145.637 16.8022 145.637 17.326 145.637 17.8901C145.275 17.8901 145.033 17.8901 144.952 17.8901C144.912 17.8498 144.67 17.8498 144.348 17.8498Z" fill="#24306E"/>
<path d="M148.982 17.8095C148.941 17.4066 148.901 17.044 148.901 16.8022C149.143 16.8828 149.344 16.9634 149.546 17.0037C149.747 17.044 149.908 17.044 150.029 17.044C150.231 17.044 150.352 17.0037 150.473 16.9634C150.593 16.9231 150.634 16.8425 150.634 16.7619C150.634 16.7216 150.634 16.6813 150.634 16.6813C150.634 16.6813 150.593 16.6007 150.553 16.5604C150.513 16.5201 150.473 16.4799 150.432 16.4396L149.828 15.956C149.707 15.8352 149.586 15.7546 149.546 15.7143C149.425 15.6337 149.344 15.5128 149.264 15.4322C149.183 15.3517 149.143 15.2711 149.143 15.1502C149.103 15.0696 149.103 14.9487 149.103 14.8681C149.103 14.7473 149.143 14.6264 149.183 14.5055C149.223 14.3846 149.304 14.304 149.385 14.1832C149.465 14.0623 149.586 13.9817 149.747 13.9414C149.908 13.9011 150.07 13.8205 150.231 13.7802C150.392 13.7399 150.593 13.7399 150.755 13.7399C151.117 13.7399 151.52 13.7802 151.923 13.8608C151.923 13.9817 151.923 14.1429 151.963 14.2234C151.963 14.3443 152.004 14.5458 152.044 14.8278C151.843 14.7473 151.681 14.707 151.52 14.6667C151.359 14.6264 151.198 14.6264 151.117 14.6264C150.956 14.6264 150.795 14.6667 150.714 14.707C150.593 14.7473 150.553 14.8278 150.553 14.9084C150.553 14.9487 150.553 14.989 150.593 15.0293C150.634 15.0696 150.634 15.1099 150.674 15.1502C150.714 15.1905 150.795 15.2711 150.875 15.3114C150.956 15.3517 151.077 15.4725 151.238 15.5934L151.48 15.7546C151.56 15.7949 151.601 15.8755 151.722 15.956C151.843 16.0366 151.883 16.1172 151.923 16.1575C151.963 16.1978 152.004 16.2784 152.044 16.359C152.084 16.4396 152.084 16.4799 152.125 16.5201C152.125 16.6007 152.165 16.641 152.165 16.7216C152.165 16.8828 152.125 17.0843 152.044 17.2454C151.963 17.4066 151.802 17.5275 151.641 17.6484C151.48 17.7692 151.278 17.8095 151.077 17.8498C150.875 17.8901 150.674 17.9304 150.432 17.9304C149.949 17.9304 149.506 17.8901 148.982 17.8095Z" fill="#24306E"/>
<path d="M152.93 17.8498C153.051 16.2784 153.132 15.0696 153.132 14.2234V13.8205C153.495 13.8205 153.736 13.8205 153.857 13.8205C153.897 13.8205 154.139 13.8205 154.542 13.8205C154.502 14.2637 154.462 14.6667 154.462 15.0696C154.421 15.6337 154.421 16.1172 154.381 16.6007C154.381 17.0842 154.341 17.4872 154.341 17.8095H153.696C153.575 17.8498 153.333 17.8498 152.93 17.8498Z" fill="#24306E"/>
<path d="M155.227 17.8498C155.267 17.4066 155.308 17.0439 155.308 16.7619C155.348 16.359 155.348 15.8352 155.388 15.1905C155.429 14.707 155.429 14.3443 155.429 14.1428V13.7802C155.67 13.7802 155.912 13.7802 156.073 13.7802C156.234 13.7802 156.476 13.7802 156.758 13.7802C157.04 13.7802 157.322 13.7802 157.564 13.7802C157.846 13.7802 158.088 13.7802 158.33 13.8205C158.571 13.8608 158.733 13.9011 158.934 14.022C159.135 14.1026 159.256 14.2637 159.418 14.4249C159.579 14.5861 159.659 14.7875 159.7 14.989C159.78 15.1905 159.78 15.4322 159.78 15.6337C159.78 15.8352 159.74 16.0769 159.7 16.2784C159.659 16.4798 159.579 16.6813 159.498 16.8425C159.418 17.0037 159.297 17.1648 159.176 17.2857C159.055 17.4066 158.894 17.4872 158.773 17.6081C158.652 17.6886 158.531 17.7289 158.41 17.7692C158.289 17.8095 158.128 17.8498 157.927 17.8498C157.685 17.8901 157.443 17.8901 157.161 17.8901H155.872C155.711 17.8498 155.509 17.8498 155.227 17.8498ZM156.597 16.9634C156.718 16.9634 156.839 16.9634 156.96 16.9634C157.161 16.9634 157.363 16.9634 157.524 16.9231C157.685 16.8828 157.846 16.8022 157.967 16.6813C158.088 16.5604 158.209 16.3993 158.249 16.2381C158.289 16.0769 158.33 15.8755 158.33 15.674C158.33 15.4322 158.289 15.2308 158.209 15.0696C158.128 14.9084 158.007 14.7875 157.846 14.7472C157.685 14.707 157.483 14.6667 157.242 14.6667C157.081 14.6667 156.919 14.6667 156.718 14.6667L156.597 16.9634Z" fill="#24306E"/>
<path d="M165.26 17.8498C165.3 17.4066 165.341 17.0439 165.341 16.7619C165.381 16.359 165.381 15.8352 165.421 15.1905C165.461 14.707 165.461 14.3443 165.461 14.1428V13.7802C165.703 13.7802 165.905 13.7802 166.106 13.7802C166.267 13.7802 166.509 13.7802 166.791 13.7802C167.073 13.7802 167.355 13.7802 167.597 13.7802C167.879 13.7802 168.121 13.7802 168.363 13.8205C168.604 13.8608 168.766 13.9011 168.967 14.022C169.168 14.1026 169.33 14.2637 169.45 14.4249C169.571 14.5861 169.692 14.7875 169.733 14.989C169.773 15.1905 169.813 15.4322 169.813 15.6337C169.813 15.8352 169.773 16.0769 169.733 16.2784C169.692 16.4798 169.612 16.6813 169.531 16.8425C169.45 17.0037 169.33 17.1648 169.209 17.2857C169.088 17.4066 168.967 17.4872 168.806 17.6081C168.685 17.6886 168.564 17.7289 168.443 17.7692C168.322 17.8095 168.161 17.8498 167.96 17.8498C167.718 17.8901 167.476 17.8901 167.194 17.8901H165.905C165.703 17.8498 165.502 17.8498 165.26 17.8498ZM166.63 16.9634C166.751 16.9634 166.872 16.9634 166.993 16.9634C167.194 16.9634 167.396 16.9634 167.557 16.9231C167.718 16.8828 167.879 16.8022 168 16.6813C168.121 16.5604 168.242 16.3993 168.282 16.2381C168.322 16.0366 168.363 15.8755 168.363 15.674C168.363 15.4322 168.322 15.2308 168.242 15.0696C168.161 14.9084 168.04 14.7875 167.879 14.7472C167.718 14.707 167.516 14.6667 167.275 14.6667C167.113 14.6667 166.952 14.6667 166.711 14.6667L166.63 16.9634Z" fill="#24306E"/>
<path d="M159.377 17.8498L159.659 17.4469L161.312 14.5861L161.473 14.2638C161.513 14.1832 161.594 14.022 161.674 13.8608C162.037 13.8608 162.319 13.8608 162.48 13.8608C162.762 13.8608 163.044 13.8608 163.326 13.8608L163.81 15.0696L164.777 17.4469L164.978 17.8901C164.616 17.8901 164.374 17.8901 164.293 17.8901C164.132 17.8901 163.85 17.8901 163.487 17.8901C163.407 17.5678 163.246 17.1649 163.084 16.7619H161.473C161.271 17.1246 161.11 17.4872 160.909 17.8901C160.506 17.8901 160.264 17.8901 160.183 17.8901C159.982 17.8499 159.74 17.8498 159.377 17.8498ZM161.835 15.8352H162.843C162.601 15.1502 162.48 14.7473 162.44 14.707C162.319 14.989 162.198 15.2308 162.077 15.4323L161.835 15.8352Z" fill="#24306E"/>
<path d="M130.528 29.4542L131.172 28.4066L135.161 21.4762L135.564 20.7106C135.685 20.4689 135.846 20.1465 136.088 19.7436C136.974 19.7436 137.659 19.7436 138.062 19.7436C138.788 19.7436 139.473 19.7436 140.077 19.7436L141.205 22.7253L143.502 28.4469L143.945 29.4945C143.059 29.4945 142.495 29.4945 142.333 29.4945C141.89 29.4945 141.246 29.4945 140.44 29.4945C140.198 28.7289 139.876 27.8022 139.473 26.7143H135.564C135.121 27.5604 134.678 28.4872 134.194 29.4945C133.227 29.4945 132.663 29.4945 132.421 29.4945C132.059 29.4139 131.414 29.4139 130.528 29.4542ZM136.531 24.619H138.909C138.304 22.9267 137.982 22.0403 137.942 21.8388C137.619 22.5238 137.337 23.1282 137.095 23.5311L136.531 24.619Z" fill="#24306E"/>
<path d="M144.872 29.4542C144.993 28.4872 145.033 27.7216 145.114 27.1172C145.194 26.2308 145.234 25.0623 145.275 23.5714C145.315 22.0403 145.355 21.033 145.355 20.5092V19.7436C146.886 19.7436 148.337 19.7436 149.667 19.7436C150.996 19.7436 152.286 19.7436 153.535 19.7436C153.454 20.8315 153.414 21.5568 153.414 21.8791H152.729H152.205H151.681H150.15C149.989 21.8791 149.465 21.8791 148.619 21.8791L148.538 23.5311H149.667H150.875C151.238 23.5311 151.802 23.5311 152.528 23.5311C152.487 24.4176 152.447 25.1429 152.447 25.6264C151.601 25.5861 150.996 25.5861 150.593 25.5861C149.908 25.5861 149.183 25.5861 148.377 25.6264L148.297 28.2051V29.1722V29.4945H146.645C146.524 29.4139 145.919 29.4139 144.872 29.4542Z" fill="#24306E"/>
<path d="M154.26 29.4139C154.542 25.5861 154.703 22.6447 154.703 20.5898V19.663C155.59 19.663 156.194 19.663 156.516 19.663C156.637 19.663 157.201 19.663 158.168 19.663C158.088 20.7509 158.007 21.7583 157.927 22.685C157.846 24.0147 157.806 25.2638 157.766 26.4323C157.725 27.6008 157.725 28.5678 157.725 29.3736H156.154C155.872 29.4139 155.227 29.4139 154.26 29.4139Z" fill="#24306E"/>
<path d="M162.198 29.4542C162.44 27.1575 162.601 24.6191 162.641 21.8388L159.377 21.9194L159.418 21.1136C159.458 20.7106 159.458 20.2271 159.458 19.7033C160.909 19.7033 162.601 19.7033 164.575 19.7033H166.469H168.322H169.33L169.29 20.3883C169.249 20.7509 169.249 21.0733 169.249 21.315C169.249 21.5568 169.249 21.7583 169.249 21.8791C168.161 21.8388 167.235 21.7985 166.509 21.7985H165.986C165.905 22.6447 165.865 23.4103 165.824 24.1355C165.784 25.1429 165.744 26.1502 165.703 27.1172C165.663 28.0843 165.663 28.8498 165.663 29.4542C164.817 29.4542 164.293 29.4542 164.011 29.4542C163.729 29.4139 163.165 29.4139 162.198 29.4542Z" fill="#24306E"/>
<defs>
<clipPath id="clip0_103_878">
<rect width="22.2797" height="22.2797" fill="white" transform="translate(85.4055 6.77734) rotate(-15.22)"/>
</clipPath>
</defs>
</svg>
